<svg width="130" height="17" viewBox="0 0 130 17" fill="none" xmlns="http://www.w3.org/2000/svg">
<path d="M10.7925 16.3112C10.867 16.2877 11.2057 16.2528 11.3338 16.2258C11.2016 16.3581 10.5097 16.3986 10.7925 16.3112ZM23.6906 6.22525C23.5792 6.26975 23.4682 6.31422 23.3576 6.35866C23.6862 6.32388 24.1263 6.23466 24.4393 6.21102C24.4905 6.20727 24.3713 6.30373 24.4914 6.28836C24.6107 6.27308 24.5703 6.17315 24.7391 6.13536C24.9257 6.09356 25.8241 6.0279 26.1306 5.97911C27.2657 5.79708 28.4167 5.56269 29.5695 5.43649C28.403 5.68794 29.6007 5.58998 29.9272 5.50814C29.9985 5.49001 29.9625 5.29698 31.1566 5.17331C31.9153 5.09547 31.2544 5.47183 32.502 5.15243C31.4985 5.09856 32.4626 4.97406 33.2163 4.86148C33.3464 4.84177 34.4144 4.72208 34.8774 4.64999C35.0369 4.625 35.2674 4.49022 35.4807 4.45842C35.6268 4.43672 35.7489 4.47649 35.9631 4.44461C36.9678 4.29583 37.967 4.15906 38.9852 4.04635C38.4229 4.38408 39.4692 4.09658 39.5159 4.10351C39.7681 4.14287 38.6729 4.30458 39.1129 4.29277C39.7197 4.20616 40.3147 4.12216 40.923 4.0376C40.4209 4.06811 41.5546 3.73541 41.7747 3.79516C41.6524 3.57461 44.5541 3.66018 44.9842 3.53417C45.073 3.50753 44.4677 3.46181 45.8442 3.35517C45.9937 3.34383 45.9454 3.41989 46.0228 3.40444C46.069 3.39517 46.327 3.1415 46.644 3.22934C46.7575 3.26195 46.0761 3.48509 47.6095 3.25395C46.9681 3.09639 49.7412 2.8954 50.2572 2.90041C50.1521 2.88089 50.0471 2.8614 49.9421 2.84195C50.4543 2.87019 50.538 2.78418 50.6521 2.7764C51.1086 2.74551 51.7425 2.75831 52.1685 2.70812C52.6672 2.64959 52.6548 2.50914 53.2389 2.50631C53.0984 2.48896 52.958 2.47166 52.8178 2.4544C53.2177 2.42203 53.619 2.39006 54.0215 2.35853C53.1102 2.63475 54.2226 2.34776 54.2975 2.33676C54.4159 2.31853 54.2521 2.411 54.4504 2.38238C54.4706 2.37889 54.435 2.30999 54.7399 2.27276C55.3751 2.19568 55.2834 2.29541 55.5512 2.26923C55.5759 2.2665 55.4834 2.2099 55.946 2.15158C57.4198 1.96737 55.9426 2.20145 55.8875 2.21585C55.8148 2.23468 56.3432 2.45657 55.0852 2.47834C55.5071 2.46919 55.5608 2.58465 55.6082 2.58317C55.65 2.58157 56.3771 2.49738 56.4173 2.48971C56.7727 2.4164 56.4493 2.36373 56.518 2.34273C56.5766 2.3253 57.4579 2.35291 57.6429 2.0896C58.0831 2.27882 57.4184 2.31602 56.7212 2.41445C56.623 2.47004 57.3972 2.44572 57.4381 2.44213C58.4345 2.35346 57.8666 2.21629 58.0743 2.07808C58.1835 2.00576 58.6023 2.09732 58.2114 1.96317C58.5024 1.93211 58.6445 1.92612 58.7048 1.93241C58.7649 1.93877 58.7434 1.9575 58.7085 1.9761C58.6697 1.99671 58.6143 2.01719 58.6357 2.02049C58.6537 2.02315 58.6805 2.02231 58.7123 2.01928C58.8393 2.00714 59.046 1.95959 59.0782 1.96201C59.1371 1.9665 58.94 2.04147 59.1708 2.04234C59.2091 2.04207 59.5701 1.91132 59.0898 1.90417C59.7273 1.86437 59.6683 1.78426 59.8986 1.9371C60.3112 1.57732 60.2333 2.10187 60.4078 2.10576C60.8722 2.11589 60.7181 1.87297 60.7414 1.85858C60.9013 1.76527 62.1792 1.75163 62.4929 1.69115C62.3821 1.88349 61.4834 1.77184 61.2891 1.82332C60.6404 1.99381 62.2244 1.84112 61.7644 2.10891C61.9599 2.02998 62.1558 1.95117 62.3519 1.87248C62.7314 1.99198 62.2158 2.09598 63.2002 1.96675C63.3524 1.82681 62.5027 2.0401 62.6675 1.92651C62.7663 1.85951 63.337 1.8035 63.3463 1.77161C63.3547 1.73327 62.8404 1.81686 62.9177 1.75313C63.0853 1.61465 64.9872 1.59287 63.5515 1.76748C63.9529 1.73538 64.1782 1.9673 64.5215 1.86489C64.7432 1.79879 63.4503 1.5485 65.3573 1.47444C65.4062 1.58814 64.6003 1.56318 64.5793 1.57379C64.551 1.58884 64.7153 1.84169 64.7414 1.85288C64.8335 1.88833 66.7634 1.61112 67.184 1.71692C67.011 1.57508 68.6473 1.59268 68.8231 1.53553C68.8697 1.51968 68.6867 1.43773 68.7367 1.42461C69.0505 1.3453 69.9094 1.45857 70.3058 1.43882C70.7487 1.41669 70.688 1.33962 70.7127 1.33825C70.908 1.33097 70.7554 1.395 70.8747 1.38767C71.0566 1.37609 72.2888 1.31501 72.3511 1.30031C72.369 1.29571 72.162 1.21523 72.4304 1.18228C72.4771 1.17666 72.453 1.28713 73.2496 1.19502C74.2069 1.08472 72.5742 1.09665 72.967 0.960011C73.5954 1.08798 73.5641 0.928133 73.7324 0.931496C73.7905 0.932915 74.2285 1.04635 74.6966 1.0126C74.3615 1.05288 74.0268 1.09341 73.6926 1.1342C74.0235 1.13996 74.6634 1.07549 74.9375 1.08825C75.0712 1.09443 74.9675 1.2129 75.2563 1.19461C75.3176 1.19018 75.5462 0.90257 74.7961 1.06596C74.7304 0.971142 75.0937 1.01579 75.2595 0.979292C75.2843 0.973654 75.3762 0.804555 75.5941 0.895269C75.6467 0.917845 75.1147 1.42375 76.5312 1.00458C76.5769 0.99109 76.4131 0.939395 76.4577 0.9247C76.4881 0.914707 76.856 0.920433 76.8961 0.909939C76.9371 0.89875 76.7567 0.8423 76.8054 0.826971C77.0551 0.748039 77.4003 0.990641 76.8775 0.996922C77.0534 1.02021 77.2295 1.04357 77.4056 1.06699C77.2089 0.880925 77.6779 0.99846 77.9172 0.980866C79.4584 0.86842 78.4192 0.790958 78.6814 0.712523C79.1038 0.586857 78.7929 0.936332 79.4231 0.80636C79.481 0.794424 78.7084 0.687344 80.2088 0.699072C79.9885 0.71456 79.7685 0.730138 79.547 0.745889C79.6842 0.928797 80.3435 0.696556 80.3951 0.691661C80.9814 0.639535 80.5867 0.72508 81.456 0.589584C81.5337 0.577456 81.7057 0.616725 81.8718 0.586307C82.5597 0.460772 80.9559 0.567468 80.9092 0.493294C80.8866 0.456275 82.6123 0.391456 82.6711 0.407317C82.9253 0.475636 81.8924 0.474936 82.0932 0.56463C82.1644 0.595536 84.6206 0.423265 85.1127 0.443484C85.6828 0.46588 85.949 0.712595 85.9417 0.424524C86.113 0.701073 86.2477 0.502957 86.3207 0.502187C87.1994 0.495865 87.2009 0.498769 87.954 0.444846C88.1204 0.433072 88.2642 0.5139 88.3226 0.497359C88.3566 0.487417 88.2893 0.397877 88.4564 0.363702C88.6883 0.316555 90.0909 0.363729 90.1974 0.411265C90.3032 0.458525 89.6063 0.452891 89.7338 0.532177C90.2372 0.523797 90.722 0.487315 91.2272 0.48001C91.4376 0.477223 91.3314 0.539045 91.4223 0.537323C91.4608 0.536754 92.1859 0.462625 92.1545 0.442095C92.0805 0.393637 89.8381 0.49955 90.4255 0.378375C90.5392 0.354871 90.947 0.476369 90.8774 0.314854C92.8818 0.287394 94.8915 0.265962 96.8948 0.249751C95.7467 0.402748 94.4463 0.329739 93.2416 0.377278C93.0773 0.383561 92.5161 0.384814 92.5869 0.465448C93.6134 0.45544 94.8889 0.37548 95.874 0.402425C95.9055 0.403341 95.792 0.480824 95.9102 0.489356C96.1312 0.505216 96.8466 0.366018 96.9685 0.393845C96.9893 0.400501 96.5828 0.509391 96.7089 0.568317C97.0325 0.719533 97.1042 0.363566 97.3792 0.360534C97.5918 0.358147 99.0203 0.492898 99.3738 0.376252C99.7488 0.251626 98.3205 0.335537 98.424 0.238818C99.3888 0.119596 100.369 0.197027 101.282 0.164019C101.298 0.163345 101.157 0.0927668 101.361 0.0777044C101.715 0.0515158 101.811 0.154126 101.984 0.166937C102.17 0.180499 102.827 0.150788 102.916 0.187056C102.927 0.191813 102.796 0.298632 102.776 0.302002C102.491 0.351179 102.386 0.218677 102.36 0.217529C102.262 0.214619 102.167 0.268425 102.078 0.267375C101.931 0.265585 101.848 0.219668 101.654 0.219915C101.519 0.219916 101.651 0.30867 101.521 0.307455C101.474 0.306616 100.957 0.109066 100.914 0.32403C100.902 0.390406 105.087 0.384447 105.503 0.323437C105.144 0.305076 104.785 0.286824 104.426 0.268685C105.154 0.315842 106.026 0.127284 106.093 0.378829C108.793 0.34509 111.492 0.317631 114.191 0.294152C114.673 0.307846 114.411 0.474534 115.203 0.414512C114.998 0.366039 114.792 0.317586 114.586 0.269155C114.993 0.298713 116.794 0.341289 117.085 0.303419C117.122 0.29845 117.172 0.150596 117.622 0.131091C118.022 0.113852 118.087 0.223055 118.301 0.240941C118.48 0.255655 118.68 0.223782 118.734 0.22907C118.774 0.233329 118.792 0.30045 118.89 0.310733C119.2 0.342438 118.946 0.156502 119.257 0.369735C119.182 0.379145 119.108 0.388558 119.033 0.397972C119.407 0.423929 119.92 0.515285 119.369 0.572202C119.275 0.582026 119.355 0.515651 119.285 0.516809C116.521 0.570376 118.729 0.663745 119.697 0.548317C119.948 0.641148 121.341 0.561977 121.388 0.580383C121.453 0.60702 121.215 0.687622 121.529 0.749769C121.595 0.762861 123.459 0.682379 122.79 0.82022C122.652 0.84863 121.756 0.833537 121.541 0.840427C122.051 1.03779 123.236 0.727767 123.369 0.733433C123.909 0.757763 122.337 0.925353 123.551 0.932086C124.485 0.937279 123.606 0.812871 123.965 0.749518C124.166 0.713952 125.226 0.849844 125.194 0.655295C125.556 0.629472 125.345 0.735635 125.39 0.742441C125.434 0.74836 126.146 0.680186 126.378 0.718113C126.406 0.722838 126.319 0.825388 126.349 0.833282C126.405 0.8467 127.093 0.817029 127.121 0.808067C127.138 0.801862 126.973 0.715382 127.04 0.692942C127.119 0.667051 127.78 0.678908 127.816 0.653051C127.867 0.613999 127.051 0.6504 127.186 0.549332C127.563 0.569167 128.175 0.494624 128.422 0.411372C128.362 0.435037 127.997 0.443284 127.87 0.43696C127.927 0.290838 128.711 0.282153 128.445 0.400808C128.614 0.336726 128.498 0.30554 128.593 0.245944C128.618 0.230837 128.86 0.224504 128.906 0.19871C128.912 0.193614 128.662 0.142186 128.711 0.111993C128.801 0.0574288 129.535 0.0594492 129.596 0.0726242C129.766 0.109977 129.167 0.166088 129.118 0.228058C129.111 0.237567 129.622 0.350756 129.63 0.361259C129.661 0.474666 129.094 0.400347 129.16 0.501944C129.3 0.521686 129.441 0.541428 129.581 0.561169C129.042 0.672287 128.042 0.632515 127.786 0.754064C128.586 0.708033 129.425 0.700798 129.427 0.966642C129.427 1.0786 129.083 1.14893 129.096 1.17721C129.149 1.27837 129.627 1.1612 129.645 1.16634C129.66 1.17235 129.666 1.1783 129.667 1.18418C129.667 1.18418 129.667 1.18419 129.667 1.18419C129.667 1.24382 128.984 1.29606 128.95 1.32375C128.893 1.3729 129.2 1.56785 129.2 1.61189C129.19 1.62088 128.703 1.67462 128.869 1.74923C129.036 1.82459 129.462 1.8205 129.478 1.82837C129.56 1.87369 128.814 1.92618 128.792 1.9539C128.781 1.96793 129.183 2.04766 129.195 2.07199C129.205 2.09643 128.901 2.15418 128.782 2.23337C128.694 2.29221 128.955 2.33285 128.909 2.34251C128.876 2.34894 128.172 2.35754 128.138 2.36814C128.086 2.38382 128.252 2.45045 128.228 2.46799C128.195 2.49322 127.967 2.47146 127.997 2.49654C128.019 2.51522 128.904 2.74063 128.899 2.80412C128.891 2.91242 127.953 2.67626 128.828 3.09126C128.834 3.09398 129.046 3.06077 129.051 3.06332C129.183 3.14007 128.506 3.27009 129.336 3.2377C127.795 3.39507 129.146 3.4029 128.92 3.58812C128.833 3.65932 128.235 3.69632 128.233 3.70686C128.292 3.79487 128.482 3.72341 128.547 3.76607C128.583 3.78992 128.049 3.89109 128.17 3.95042C128.233 3.98099 128.801 3.96208 128.824 3.96789C129.05 4.02264 128.775 4.08865 128.825 4.12904C128.858 4.15612 129.201 4.15364 129.21 4.15848C129.225 4.16859 128.761 4.28614 128.664 4.32656C128.591 4.35764 128.868 4.40101 128.817 4.41483C128.508 4.49746 127.847 4.30642 128.485 4.57805C128.524 4.59471 128.765 4.5845 128.772 4.58783C128.921 4.66526 128.479 4.67814 128.401 4.74426C128.266 4.85819 128.901 4.78705 128.374 4.87306C128.771 4.94096 128.992 4.9349 129.456 4.90816C128.172 4.98262 127.722 5.27893 129.149 5.25222C128.695 5.25387 128.747 5.41693 128.612 5.42165C128.528 5.42439 127.868 5.27054 128.174 5.63173C128.213 5.67685 128.612 5.61343 128.488 5.70853C127.529 5.69775 128.468 5.76824 128.469 5.78057C128.46 5.99589 126.114 5.85163 125.712 5.88176C125.245 5.91665 124.832 6.09196 124.731 6.09359C124.396 6.0983 124.673 6.00836 124.597 5.97774C124.521 5.94742 123.573 6.12561 123.526 6.11723C123.341 6.08342 123.527 5.97879 123.507 5.97391C123.279 5.91456 122.004 6.01249 121.646 5.99394C121.658 6.05995 122.376 6.05497 121.929 6.16765C121.41 6.29903 121.376 6.00774 121.362 5.9951C118.973 6.03224 116.586 6.07099 114.198 6.11291C114.23 6.26753 115.789 6.12534 115.826 6.1453C116.035 6.26277 113.4 6.30314 113.074 6.25415C113.321 6.28353 113.568 6.31295 113.813 6.34242C113.398 6.52775 112.463 6.31158 111.859 6.4009C111.663 6.42983 112.041 6.49218 112.033 6.49703C111.814 6.57012 111.46 6.52289 111.722 6.42524C111.187 6.52376 111.264 6.42403 110.85 6.42396C110.829 6.42403 111.008 6.49288 110.681 6.52855C110.528 6.54517 109.713 6.56018 109.605 6.6252C109.56 6.65254 109.979 6.9242 110.026 6.68296C110.915 6.78409 110.307 6.56832 110.652 6.56765C110.705 6.568 110.586 6.70418 111.453 6.62577C111.293 6.8705 110.288 6.70743 110.118 6.73989C109.765 6.80647 111.225 6.90518 111.488 6.71209C111.367 6.90305 111.592 6.7357 111.917 6.73785C112.272 6.74013 112.118 6.79902 112.31 6.79602C112.836 6.78845 112.616 6.65891 113.052 6.77171C112.622 6.40693 113.794 6.71014 114.134 6.80206C113.583 6.82999 113.03 6.85813 112.478 6.88643C112.51 6.90542 112.542 6.92441 112.574 6.94341C112.428 6.94312 112.283 6.94284 112.137 6.94258C112.16 6.92346 112.183 6.90434 112.206 6.88523C111.459 7.01983 111.274 6.88637 111.213 6.88591C110.424 6.88392 109.516 6.90158 108.72 6.91612C108.6 6.91833 108.684 7.03836 107.812 6.95977C107.534 6.93478 107.794 6.83502 107.48 6.85533C107.092 7.1203 107.095 6.91496 106.978 6.91693C106.644 6.92357 106.439 6.99146 106.408 6.99275C105.993 7.011 105.385 7.01278 104.93 7.03181C104.922 7.03296 105.16 7.10706 104.864 7.08985C104.761 7.08364 103.82 6.76586 103.008 6.89395C103.22 6.91204 103.433 6.93017 103.645 6.94835C103.395 6.92166 101.653 7.04602 102.081 7.12675C102.344 7.17595 102.977 6.94421 103.052 7.15184C102.471 7.10106 99.265 7.27074 99.0136 7.22937C98.9789 7.2233 99.1898 7.15012 99.1418 7.14264C99.1046 7.1369 98.3705 7.17153 98.2725 7.14802C98.2141 7.13402 98.5374 7.08414 98.5104 7.06037C98.4865 7.04346 97.5706 7.03804 97.5194 7.12458C97.7445 7.08446 98.3767 7.09801 98.0472 7.17824C98.0047 7.18824 97.7823 7.13912 97.7309 7.15177C97.253 7.26846 98.6886 7.20617 98.9118 7.20164C98.0121 7.33255 96.6087 7.24165 95.5662 7.34161C95.142 7.28261 96.1892 7.21591 95.7098 7.17055C94.7137 7.0768 95.4485 7.27582 95.4182 7.28567C95.173 7.36393 94.3216 7.00536 94.3298 7.29673C93.9688 7.26338 94.084 7.2232 93.5779 7.27634C93.6452 7.29453 93.7125 7.31273 93.7798 7.33093C93.2235 7.51605 92.014 7.12735 92.1032 7.09217C92.3408 6.99771 92.9672 7.11424 93.0203 7.1094C93.0992 7.10224 93.307 6.79982 94.1742 7.03894C94.5201 6.83022 92.8087 6.94545 93.5841 6.78715C93.0575 6.82436 90.8862 6.75439 90.5757 6.85227C90.5388 6.86487 90.7187 7.05661 90.1795 6.97379C89.9235 6.93435 90.5369 6.91174 90.419 6.87061C90.0565 6.74115 85.19 7.00367 84.2689 7.05188C84.2089 7.05451 84.2284 6.99235 84.1694 6.99528C83.9879 7.00422 83.3313 7.12253 83.0066 7.10791C83.6817 7.19343 82.381 7.25636 82.0481 7.25848C81.5432 7.26122 81.5699 7.15214 81.3513 7.13873C80.5103 7.08686 79.2229 7.4029 78.5618 7.19505C78.6093 7.43064 77.431 7.13304 76.9022 7.15799C76.4883 7.17715 75.8978 7.3653 76.4599 7.4323C75.7485 7.45777 74.9953 7.54216 74.3285 7.59316C74.2182 7.60163 74.3664 7.52309 74.1783 7.53978C74.1613 7.54181 74.1414 7.61189 73.9801 7.62799C72.6455 7.76272 73.288 7.58037 73.0352 7.55145C72.8936 7.53537 72.7895 7.52934 72.7134 7.52976C73.4936 7.47123 74.3906 7.395 74.631 7.38009C74.4182 7.23878 72.9038 7.50479 72.4558 7.49035C72.4402 7.48976 72.4892 7.40292 72.4735 7.40324C72.4731 7.40326 72.4728 7.40328 72.4725 7.4033C72.3048 7.4063 71.244 7.50021 71.4684 7.58711C71.5301 7.6102 72.0174 7.58096 72.5981 7.53836C72.4419 7.56618 72.5648 7.65318 72.5373 7.65878C72.2035 7.72444 71.3757 7.68161 71.0811 7.6872C71.014 7.68854 71.0225 7.74833 71.0115 7.74914C70.7445 7.75166 70.8432 7.57347 70.5812 7.76707C70.0864 7.58274 71.4822 7.68027 71.3767 7.5476C71.2934 7.44315 68.2238 7.69406 68.2444 7.86392C68.2326 7.84661 68.1889 7.82704 68.1007 7.80734C67.9053 7.76333 67.052 7.83865 66.9058 7.88004C66.8813 7.88785 66.9025 8.05055 66.8717 8.05418C66.7943 8.06302 65.7412 8.00772 65.3597 8.13253C65.5715 8.14032 65.783 8.14827 65.995 8.15632C64.7264 8.24797 64.9229 8.2836 65.352 8.3015C65.3733 8.30041 65.3945 8.30512 65.4146 8.30434C65.7443 8.31692 66.1672 8.32214 66.1746 8.3346C66.2029 8.38086 64.0479 8.56464 64.4517 8.38328C64.5075 8.35808 65.5121 8.35292 65.0093 8.28074C64.9211 8.26798 64.2822 8.34601 64.2479 8.33669C64.0162 8.27387 65.4095 8.06594 65.2306 7.96608C64.8975 8.09783 64.4569 8.07334 64.0698 8.1301C63.8936 8.15584 63.8563 8.24101 63.8346 8.24419C63.5101 8.29014 63.6867 8.19051 63.578 8.20088C63.5205 8.2066 62.8894 8.43875 62.9919 8.1776C60.8844 8.52943 62.419 8.40652 63.7193 8.29401C63.3181 8.41635 62.5042 8.4347 62.1457 8.48466C62.0167 8.50265 62.1001 8.58056 61.8827 8.61477C61.5377 8.66885 60.1506 8.7293 59.2928 8.76816C59.0442 8.77934 58.8389 8.78842 58.7133 8.7943C59.0556 8.73456 58.9468 8.65187 58.6811 8.68143C58.4156 8.71111 58.6498 8.81359 58.5991 8.83126C58.5432 8.84941 57.2966 8.90259 57.089 8.93801C58.022 8.80883 57.8038 8.73649 57.0058 8.7995C57.1186 8.76269 57.2329 8.72581 57.3447 8.68919C56.8798 8.76823 55.8843 8.72074 55.6199 8.78781C55.5784 8.79846 55.7372 8.86074 55.7139 8.86672C55.4827 8.9212 54.667 8.92081 54.6323 8.95073C54.6026 8.97556 54.9529 9.00649 54.8283 9.05047C54.8022 9.0597 54.4603 8.98822 54.1371 9.0457C54.0172 9.06695 54.0971 9.13224 54.0671 9.13943C53.8172 9.19929 53.9543 9.06242 53.4939 9.12802C53.1571 9.17631 52.9123 9.32134 52.4389 9.32976C54.0004 9.32521 52.6921 9.3927 52.054 9.50523C51.9519 9.52326 52.053 9.64536 51.4322 9.64538C52.7159 9.27178 51.0459 9.55811 50.6967 9.59324C50.6776 9.59445 50.6618 9.50846 50.4922 9.52512C50.4779 9.52673 50.5047 9.58309 50.3479 9.60438C48.8641 9.80704 49.8088 9.63841 49.5199 9.61117C49.3965 9.59954 48.6765 9.76238 48.4821 9.78616C48.4372 9.79136 48.451 9.72823 48.2776 9.74996C47.9706 9.78861 47.7052 9.88409 47.5021 9.91229C47.4784 9.9153 47.4661 9.81938 47.0835 9.89452C46.976 9.9156 46.8582 9.9636 47.0153 9.97357C47.5406 10.0052 48.4807 9.74068 49.0707 9.76783C49.606 9.79228 47.9478 9.98315 47.8644 9.99376C47.8329 9.9976 48.1496 9.91377 47.8214 9.94111C47.5437 9.96436 47.043 10.189 46.6223 10.201C46.5901 10.202 46.2404 10.1001 46.2549 10.0901C46.2679 10.0825 46.777 9.99285 46.698 9.9608C46.6884 9.95717 46.3627 9.99569 46.3169 9.97037C46.2606 9.93954 46.0785 9.59427 46.008 9.59329C45.8273 9.59163 45.9528 9.66059 45.837 9.66828C45.5899 9.68463 44.7112 9.68025 44.6995 9.80886C44.8425 9.79936 44.9856 9.7899 45.129 9.78048C44.3388 9.88732 44.6831 9.90066 44.5737 9.93747C44.4564 9.97728 44.4769 9.8631 44.2102 9.88465C44.1548 9.88866 43.0383 10.0477 43.0649 10.0916C43.6738 9.94251 43.4617 10.1066 43.4903 10.1055C43.5996 10.1012 43.7301 10.0079 43.8747 9.99199C44.8903 9.88176 43.8818 10.1254 44.125 10.1275C44.2086 10.128 44.3652 10.0431 44.4006 10.0423C44.5158 10.0394 44.5279 10.1245 44.6031 10.1085C44.7787 10.0713 44.557 9.97533 44.5703 9.96738C44.7196 9.87281 45.3546 9.89293 44.9819 10.0703C45.2205 10.09 45.2291 9.92714 45.4218 9.96916C45.8053 10.0522 45.2491 10.0847 45.1028 10.1234C44.5765 10.2626 44.4144 10.2196 43.6614 10.3322C43.3886 10.3728 43.0756 10.4899 42.9501 10.5096C42.8704 10.522 42.0893 10.345 42.1206 10.7699C41.8232 10.7655 41.3278 10.5453 41.0296 10.5962C40.7617 10.642 40.8665 10.7804 40.8421 10.7893C40.8047 10.8033 40.4785 10.833 40.3718 10.8682C40.2466 10.9096 40.3187 10.9582 40.1152 11.008C39.6097 11.1319 39.6043 10.9779 39.5503 10.9749C38.9265 10.9398 39.2217 11.1217 39.089 11.1567C38.9708 11.1877 37.1888 11.3398 36.8331 11.4447C36.9785 11.3939 37.1243 11.3432 37.2705 11.2924C36.9884 11.2338 36.7269 11.427 36.697 11.2577C36.6787 11.54 36.0937 11.4326 35.9278 11.4628C35.8622 11.4747 35.8738 11.5209 35.7917 11.5342C35.4717 11.5865 34.7414 11.6501 34.5675 11.6988C33.8244 11.9069 35.7842 11.8063 35.9353 11.7969C35.6333 11.8345 33.9149 12.1377 34.7274 12.1586C34.8531 12.1618 35.0545 12.0084 35.1233 11.9939C35.5806 11.8982 35.2328 12.0588 35.2704 12.0642C35.3341 12.0726 35.6239 11.9239 35.7064 11.9255C35.734 11.9259 35.5741 12.0495 36.0177 11.9906C35.8133 12.1168 34.5567 12.2112 34.3946 12.2575C34.3384 12.2739 34.7289 12.429 33.6394 12.3785C33.6544 12.396 33.6694 12.4134 33.6844 12.4308C33.0923 12.5229 32.4932 12.6171 31.9077 12.7102C31.9652 12.6568 32.2829 12.5201 31.8694 12.5994C31.6278 12.6456 31.8221 12.7178 31.8004 12.7239C31.5803 12.7803 27.7396 13.3205 27.0028 13.4494C26.7468 13.4924 26.0558 13.6809 26.0037 13.6907C25.6912 13.7473 24.5319 13.8778 24.3155 13.924C24.1765 13.9535 24.324 14.0141 24.1956 14.0306C24.076 14.046 24.1866 13.947 24.1508 13.9493C23.8481 13.9671 21.6756 14.4255 21.1393 14.4382C21.4661 14.4068 23.0321 13.9895 22.9884 13.9396C22.9819 13.9328 22.5838 13.9353 22.5073 13.978C22.3626 13.931 21.9429 14.2138 21.693 14.2127C21.6639 14.2127 21.7568 14.077 21.3134 14.128C21.1585 14.146 20.7735 14.3032 20.3617 14.2663C19.7892 14.4099 16.7262 14.7725 16.5443 14.9347C16.5388 14.9425 16.9702 14.9131 16.6926 15.0138C16.3232 15.1479 16.6332 14.8567 16.1755 14.9149C16.101 14.9244 14.8706 15.1614 14.8255 15.1842C14.4678 15.3798 15.5755 15.2416 15.5567 15.2605C15.532 15.3038 14.6205 15.4857 14.5857 15.4826C14.549 15.4794 15.2544 15.1796 14.3835 15.3984C14.4873 15.4015 14.5917 15.4044 14.6967 15.4073C14.288 15.5197 14.2327 15.407 14.1297 15.4175C13.803 15.4509 13.5007 15.6898 12.959 15.5552C12.8131 15.5199 13.0265 15.4147 13.0081 15.4088C12.8307 15.3579 12.6615 15.6072 12.395 15.4904C12.375 15.4817 12.914 15.2885 11.9425 15.4597C12.0146 15.4626 12.0848 15.4659 12.1529 15.4696C12.0161 15.5287 11.0416 15.7219 10.8957 15.7395C10.4985 15.7856 10.8195 15.616 10.4322 15.6981C10.5468 15.742 10.409 15.8075 10.2172 15.8578C9.9292 15.9319 9.54042 15.9753 9.56692 15.8929C9.4392 16.0826 8.38727 16.1399 7.91853 16.2187C7.6109 16.2708 7.02234 16.4476 6.91696 16.4577C6.79826 16.4682 6.8128 16.3517 6.60176 16.3636C6.54909 16.3657 5.92607 16.5592 5.36157 16.5407C5.25344 16.537 4.98841 16.3905 5.1831 16.3079C5.50302 16.1689 6.1734 16.2063 6.14454 16.0972C6.11287 15.9806 5.27233 16.2015 5.02901 16.2284C3.94402 16.3456 4.54083 16.1107 4.50703 16.0773C4.42077 15.997 3.83098 16.1036 3.81061 16.0986C3.70403 16.0792 4.09995 15.934 4.10063 15.8756C4.09026 15.8015 3.50971 15.7665 3.63106 15.7196C3.80591 15.6526 4.34745 15.6716 4.37701 15.6609C4.79722 15.5134 4.17673 15.4472 4.00109 15.3919C3.94615 15.375 4.13969 15.2974 4.09582 15.2974C3.44597 15.2936 4.00725 15.5594 3.58723 15.6088C3.2118 15.653 3.66965 15.4574 3.65754 15.4532C3.63007 15.451 3.20096 15.52 3.11643 15.494C3.08472 15.4793 4.18879 15.0613 4.12184 14.9725C3.75712 15.0588 3.39994 15.1436 3.03597 15.2295C2.98844 15.1068 3.52311 15.1096 3.58314 15.0855C3.69006 15.0396 3.36563 15.0303 3.37337 14.9875C3.37386 14.961 3.72735 14.805 3.38818 14.8257C3.27485 14.8322 3.05728 14.9623 2.6361 14.9421C4.02269 14.5794 3.04181 14.6775 2.98699 14.6407C2.94307 14.602 3.59226 14.3791 2.78032 14.5406C2.70409 14.2989 2.77864 14.4603 3.0094 14.3751C3.28629 14.2714 2.61079 14.306 3.65974 14.1856C3.5876 14.079 2.74282 14.2355 2.70401 14.2327C2.66508 14.2309 2.83663 14.1422 2.76838 14.1342C1.94799 14.047 2.50351 14.0552 2.25345 13.9516C2.22481 13.9435 1.47982 14.0185 2.03942 13.8997C3.0574 13.6831 3.51417 13.7716 3.62613 13.3903C2.83956 13.3715 1.96199 13.7582 1.73247 13.8019C1.37755 13.8692 1.73903 13.7327 1.68776 13.721C1.67116 13.7172 1.37295 13.775 1.36256 13.7709C1.0992 13.5411 2.71228 13.5318 3.2013 13.3975C3.05565 13.3818 2.93056 13.3624 2.78254 13.347C2.96582 13.3132 3.13979 13.2811 3.32226 13.2474C2.44606 13.318 3.2959 13.2206 3.45958 12.9684C3.49819 12.9115 2.95348 13.0932 3.5712 12.8452C3.09202 12.8972 3.22938 12.8274 2.81977 12.9622C2.80794 12.8748 3.75745 12.6072 4.1335 12.495C2.77008 12.6341 3.58847 12.8188 2.40541 12.8523C2.20696 12.9979 2.75429 12.8806 2.71506 12.9057C2.56124 12.9984 2.16822 12.9628 1.74602 13.2668C1.67801 13.3164 2.01234 13.3748 1.54565 13.4503C1.49218 13.4588 1.17781 13.4136 1.18259 13.4055C1.20702 13.3234 1.50645 13.3008 1.51486 13.2668C1.51918 13.2353 1.19494 13.3099 1.19253 13.3017C1.16506 13.2089 1.46107 13.218 1.41365 13.1956C1.31244 13.1467 0.099607 13.1459 1.64861 12.9397C0.391311 13.2677 1.50647 13.0727 1.99508 12.9448C2.1285 12.9109 2.13875 12.8508 2.32139 12.7986C2.54863 12.7327 2.83168 12.7111 2.94605 12.6803C3.07399 12.646 2.31318 12.6417 3.38694 12.4944C2.81912 12.457 1.88903 12.7661 1.33713 12.7653C0.235082 12.7612 2.04343 12.4068 2.23435 12.3538C2.28484 12.3399 2.09951 12.2935 2.13304 12.2828C2.19305 12.265 3.23473 12.1189 3.32105 12.0384C3.40972 11.9577 2.94744 12.107 2.8983 12.0477C2.87896 12.0054 4.09947 11.7097 3.42653 11.7968C2.96075 11.8573 2.12012 12.1883 1.94934 12.0204C2.62295 11.8865 3.31958 11.7477 3.99814 11.6119C3.60476 11.606 3.22039 11.5984 2.83102 11.5915C3.60626 11.4316 4.27703 11.3984 4.99414 11.1642C3.19807 11.2399 5.52206 10.8789 5.55318 10.844C5.55732 10.8257 4.83734 10.7571 4.71299 10.7433C5.31845 10.5614 7.16166 10.1989 6.04369 10.1549C6.24064 10.1746 6.70487 9.95795 6.69872 9.94888C6.60969 9.85793 5.58377 10.1084 5.7348 9.9853C5.92055 9.84066 6.21217 9.94087 6.51921 9.87449C8.02466 9.54716 7.57618 9.1023 8.98509 8.89965C9.02981 8.89327 9.07667 8.88712 9.12588 8.88121C9.09197 8.86737 9.05816 8.85353 9.02446 8.83966C10.7163 8.57146 12.4526 8.29624 14.1582 8.03253C14.7942 7.75185 16.5607 7.34568 17.4439 7.21623C17.6244 7.1893 18.4955 7.13247 18.5679 7.13615C18.6941 7.145 18.0279 7.26779 18.3386 7.27198C18.408 7.27148 19.8755 7.06543 19.7576 6.99025C19.5896 7.00688 19.086 7.13809 19.0001 7.13003C18.376 7.07095 22.9224 6.45428 23.1447 6.35892C23.0419 6.34447 22.934 6.33085 22.8281 6.31696C23.123 6.285 23.4008 6.25598 23.6906 6.22525ZM11.8955 15.8463C11.7363 15.9699 11.3094 15.9737 11.0591 16.0448C10.707 16.1446 10.1965 16.6028 10.3812 16.2015C10.8792 16.0842 11.3888 15.9649 11.8955 15.8463ZM19.3582 14.7C19.0109 14.7071 19.2392 14.4632 19.5333 14.4994C19.5662 14.5036 19.8307 14.6898 19.3582 14.7ZM15.7645 15.2142C15.778 15.2091 16.0748 15.1634 16.0861 15.1647C16.3653 15.1991 15.4711 15.3365 15.7645 15.2142ZM33.0472 12.3653C32.6702 12.4282 32.9699 12.5713 33.195 12.4626C33.2091 12.4557 33.0721 12.3613 33.0472 12.3653ZM32.7776 12.399C32.4603 12.2778 31.9224 12.6937 32.3838 12.5929C32.4283 12.583 32.7921 12.405 32.7776 12.399ZM18.1284 14.8255C18.1557 14.7567 18.5136 14.7272 18.669 14.7163C18.674 14.774 18.2736 14.7937 18.1284 14.8255ZM27.0576 13.3599C27.0622 13.3085 25.8365 13.5019 25.7676 13.5793C25.9515 13.5221 27.0479 13.4063 27.0576 13.3599ZM30.1899 12.8147C30.1569 12.8108 29.7325 12.8873 29.7517 12.9288C29.9674 12.9548 30.337 12.8321 30.1899 12.8147ZM36.4396 11.9264C36.4612 11.9124 36.1044 11.6791 36.8855 11.7584C36.9998 11.77 36.614 11.896 36.6544 11.9006C36.7397 11.9087 36.8068 11.9088 36.8592 11.9033C36.5091 11.9742 36.1458 12.035 36.1083 12.023C35.9318 11.9665 36.4297 11.9324 36.4396 11.9264ZM39.6975 11.2827C39.7636 11.2281 40.2316 11.1922 40.339 11.1973C40.3574 11.1985 40.2945 11.3273 40.4998 11.2919C40.6648 11.2633 40.4012 11.1735 40.7272 11.1515C41.057 11.1293 40.6307 11.2718 40.6602 11.2743C40.6992 11.2775 41.1993 11.1583 41.1927 11.2311C41.1873 11.2849 40.6398 11.3187 40.5079 11.347C40.3382 11.3833 40.5583 11.4437 40.2679 11.462C40.0842 11.4738 40.1654 11.3073 40.1259 11.3045C40.0924 11.3024 39.4694 11.473 39.6985 11.283C39.6982 11.2829 39.6978 11.2828 39.6975 11.2827ZM36.9523 11.8838C36.9269 11.8926 36.8965 11.8995 36.8592 11.9033C36.8905 11.897 36.9216 11.8903 36.9523 11.8838ZM12.8712 15.6054C13.0593 15.6207 12.5357 15.775 12.33 15.7478C12.3162 15.699 12.8395 15.6034 12.8712 15.6054ZM37.2585 11.7153C37.783 11.6839 37.407 11.788 36.9523 11.8838C37.0943 11.8352 37.0828 11.726 37.2585 11.7153ZM22.5073 13.978C22.5312 13.9858 22.5481 14.0013 22.5546 14.0301C22.4914 14.0077 22.4834 13.9914 22.5073 13.978ZM23.7257 13.8348C24.1287 13.679 23.282 13.8185 23.2991 13.8811C23.3051 13.9047 23.7092 13.841 23.7257 13.8348ZM33.5345 12.3046C33.4942 12.3015 34.0482 11.948 33.217 12.2725C33.6836 12.2383 33.2001 12.3371 33.2109 12.3597C33.2424 12.4241 33.9975 12.2504 34.1723 12.2558C34.2881 12.1158 33.6624 12.3157 33.5355 12.3045C33.5352 12.3046 33.5349 12.3046 33.5345 12.3046ZM45.6361 10.6146C45.5392 10.6982 45.2034 10.7145 44.979 10.737C45.0751 10.6533 45.4103 10.6368 45.6361 10.6146ZM104.577 7.11884C103.026 7.21835 102.818 6.93091 104.242 7.01559C104.27 7.0174 104.671 7.08723 104.577 7.11884ZM91.268 7.39119C91.1182 7.26859 91.5998 7.23264 91.9188 7.27528C91.9909 7.28484 92.2604 7.40546 91.9581 7.44015C91.9629 7.28556 91.4924 7.2414 91.268 7.39119ZM37.5411 11.595C37.681 11.4905 38.1569 11.4879 38.4066 11.4678C38.2643 11.5571 37.7615 11.5922 37.5411 11.595ZM99.4756 7.08307C99.3117 7.07747 99.204 7.19097 99.2325 7.19948C99.3599 7.23859 99.6636 7.14151 99.4756 7.08307ZM36.0325 11.7865C36.0038 11.7391 36.6177 11.6059 36.6786 11.7244C36.5438 11.7335 36.0519 11.8159 36.0325 11.7865ZM45.2077 10.6267C45.1081 10.6125 45.6024 10.5076 45.7573 10.5153C45.7512 10.5704 45.2726 10.6359 45.2077 10.6267ZM96.8446 7.1884C96.6979 7.18269 96.3323 7.18968 96.293 7.23557C96.2443 7.29287 96.7797 7.25926 96.8446 7.1884ZM124.113 6.58027C124.132 6.60012 123.566 6.75304 123.313 6.7199C122.833 6.65643 124.093 6.56632 124.113 6.58027ZM101.022 6.98865C101.486 7.08314 100.971 6.99316 100.994 7.1036C101.304 7.10023 102.078 7.08788 101.544 6.99111C101.44 6.97241 101.167 6.99241 101.022 6.98865ZM100.595 6.96164C100.546 6.99874 100.216 7.11997 100.504 7.10497C100.636 7.09787 100.848 6.96692 100.595 6.96164ZM120.597 6.6796C120.181 6.58737 122.082 6.61261 122.137 6.62911C122.166 6.63778 122.185 6.64607 122.196 6.65317C122.265 6.62105 122.625 6.61034 122.667 6.68848C122.56 6.6835 122.265 6.69461 122.231 6.68637C122.216 6.68286 122.205 6.67954 122.198 6.6761C122.072 6.7462 120.676 6.69702 120.597 6.6796ZM117.446 6.62552C117.918 6.47338 118.006 6.71844 117.965 6.72698C117.45 6.83566 117.784 6.64888 117.768 6.64061C117.732 6.627 117.366 6.71691 117.447 6.6255C117.447 6.6255 117.446 6.62551 117.446 6.62552ZM119.95 6.64851C119.97 6.64501 120.369 6.6468 120.385 6.65045C120.713 6.72845 119.585 6.72377 119.95 6.64851ZM42.1574 10.7958C42.4396 10.7853 42.1785 10.9091 41.986 10.9004C41.9697 10.8992 41.9073 10.8052 42.1574 10.7958ZM100.368 6.99148C100.303 6.97564 98.6112 6.95288 98.7167 7.08738C98.8595 7.06724 100.781 7.09089 100.368 6.99148ZM87.7601 7.3304C88.0575 7.32082 87.7379 7.46141 87.5777 7.41905C87.5183 7.4033 87.6852 7.33289 87.7601 7.3304ZM35.1862 11.785C34.8908 11.8977 34.9222 11.6531 35.1968 11.6973C35.2075 11.699 35.1977 11.7806 35.1862 11.785ZM90.1376 7.32256C89.1154 7.43524 89.343 7.01751 90.6824 7.11163C90.6412 7.13121 90.6 7.1508 90.5588 7.17039C92.1006 7.18188 90.6655 7.19554 90.2886 7.23107C90.1456 7.24452 90.268 7.30882 90.1386 7.32301C90.1383 7.32286 90.1379 7.32271 90.1376 7.32256ZM86.1975 7.38005C85.1984 7.12716 87.0918 7.24467 87.6298 7.18801C87.1101 7.32676 86.4287 7.33376 87.3596 7.42254C86.0066 7.49596 86.5647 7.35991 86.5108 7.35217C86.4462 7.34378 86.2401 7.39092 86.1975 7.38005ZM88.802 7.28387C88.8587 7.2734 89.2899 7.31773 89.4444 7.30286C89.2316 7.40928 88.4249 7.35463 88.802 7.28387ZM114.146 6.74521C114.181 6.66689 114.268 6.60816 114.609 6.63168C114.504 6.67245 114.288 6.70959 114.146 6.74521ZM11.5002 15.5006C11.272 15.5353 10.8062 15.588 10.9618 15.6435C10.9856 15.6463 11.5052 15.5463 11.5002 15.5006ZM95.4653 7.05574C95.4149 7.04741 94.1271 7.07792 94.5742 7.15092C94.7089 7.17276 95.8805 7.12881 95.4653 7.05574ZM102.131 6.89703C102.023 6.89866 101.585 6.92338 101.576 6.942C101.548 7.00622 102.085 6.95892 102.131 6.89703ZM10.3241 15.6279C10.3155 15.6272 10.2577 15.6369 10.1807 15.6517C9.96181 15.6936 9.60897 15.7714 9.67014 15.7884C9.76448 15.8149 10.0186 15.7557 10.1894 15.7009C10.2972 15.6653 10.3673 15.6317 10.3241 15.6279ZM43.1565 10.4887C43.2153 10.4786 43.304 10.5529 43.3246 10.5513C43.3739 10.5462 44.4519 10.3831 44.0522 10.5406C43.9874 10.5661 42.4195 10.7161 42.2205 10.7308C42.1281 10.6254 42.8034 10.6527 42.9643 10.621C42.9925 10.6153 42.9988 10.5168 43.156 10.4893C43.1562 10.4891 43.1563 10.4889 43.1565 10.4887ZM115.919 6.63463C115.965 6.5601 117.252 6.49124 117.239 6.58083C116.798 6.59868 116.358 6.61661 115.919 6.63463ZM115.264 6.63284C114.988 6.58511 115.632 6.55754 115.822 6.57755C115.825 6.6271 115.304 6.63981 115.264 6.63284ZM99.6845 6.67935C99.5555 6.70054 99.9562 6.79832 99.8677 6.82141C99.8109 6.83581 99.5207 6.8026 99.4293 6.83852C99.4034 6.84985 99.7009 6.94365 99.7861 6.93721C99.9072 6.92841 99.7877 6.85174 99.92 6.84797C100.358 6.83561 100.747 6.88307 101.159 6.87211C101.196 6.87097 100.906 6.82155 101.223 6.81492C101.272 6.81379 101.568 6.89056 101.947 6.86948C102.778 6.5913 103.397 6.83205 104.458 6.71598C104.418 6.69238 103.621 6.64402 103.575 6.64267C102.686 6.61919 101.095 6.65091 100.167 6.67299C99.9285 6.67853 100.045 6.73057 99.9429 6.73507C99.8619 6.73853 99.9559 6.63462 99.6845 6.67935ZM11.613 15.4237C11.4803 15.3441 11.1258 15.472 10.8648 15.5129C10.9744 15.5864 11.3665 15.4444 11.613 15.4237ZM109.481 6.65337C109.356 6.65958 108.967 6.63625 108.935 6.6674C108.895 6.70803 109.456 6.72278 109.481 6.65337ZM49.2656 9.80886C49.2773 9.80477 49.5778 9.77747 49.5885 9.77955C49.8642 9.83141 48.9657 9.9126 49.2656 9.80886ZM56.4087 9.10515C56.6342 9.0716 56.8604 9.01897 56.9443 9.09394C56.7982 9.09462 56.3874 9.16468 56.4087 9.10515ZM66.279 8.30133C66.2244 8.197 66.9133 8.21914 67.0436 8.22006C66.9987 8.27103 66.3186 8.37631 66.279 8.30133ZM114.091 6.40768C114.512 6.40716 114.421 6.24535 114.689 6.3149C114.733 6.32668 114.88 6.66434 114.415 6.5445C114.331 6.52297 114.655 6.43683 114.091 6.40768ZM90.9001 7.10796C91.0054 7.03319 91.3387 7.04363 91.5645 7.04219C91.5154 7.09673 91.0611 7.09762 90.9001 7.10796ZM9.03227 15.7738C8.82082 15.709 7.93199 15.942 8.16671 15.9681C8.20227 15.9706 8.90399 15.7927 9.03227 15.7738ZM38.5574 11.1316C38.9165 11.0042 38.1456 11.0812 37.912 11.1907C38.0206 11.171 38.5345 11.1398 38.5574 11.1316ZM63.9013 8.41497C63.9188 8.41035 64.314 8.38854 64.332 8.39115C64.6615 8.44959 63.5437 8.51179 63.9013 8.41497ZM54.0463 9.19987C54.181 9.12078 55.1218 9.08229 55.3383 9.12754C55.1445 9.24136 53.8777 9.29805 54.0463 9.19987ZM112.359 6.48313C112.659 6.47461 112.944 6.48987 113.221 6.51344C113.164 6.56931 112.391 6.52358 112.359 6.48313ZM65.352 8.3015C65.3733 8.30041 65.3945 8.30512 65.4146 8.30434C65.3935 8.30352 65.3724 8.30237 65.352 8.3015ZM105.635 6.57032C105.383 6.55379 105.437 6.65335 105.453 6.65611C105.643 6.6848 105.921 6.58897 105.635 6.57032ZM11.305 15.3264C11.2084 15.2512 10.7966 15.3956 10.5529 15.4168C10.6317 15.4757 11.1233 15.3682 11.305 15.3264ZM85.1331 7.23469C84.8139 7.14847 86.0922 6.98448 86.3661 7.03801C86.388 7.09788 85.1792 7.24616 85.1331 7.23469ZM37.3859 11.1503C37.3512 11.0831 36.8324 11.2398 36.9496 11.2579C37.0235 11.2695 37.4065 11.1921 37.3859 11.1503ZM87.0129 7.05555C87.1324 7.02941 87.4159 7.08938 87.3185 7.13575C87.1936 7.19519 86.982 7.0629 87.0129 7.05555ZM97.8388 6.66245C97.7866 6.65288 97.0769 6.74464 97.3726 6.80947C97.5778 6.85453 97.6076 6.75085 97.6555 6.74929C97.7089 6.74814 98.8506 6.84468 97.8388 6.66245ZM77.9503 7.48721C78.2156 7.44683 78.5393 7.46299 78.8187 7.44773C78.7068 7.49705 78.0666 7.53997 77.9503 7.48721ZM39.44 10.8592C39.3712 10.8385 37.6212 11.0522 38.6272 11.0086C38.6844 11.0059 39.6461 10.9201 39.44 10.8592ZM114.091 6.40768C114.038 6.40775 113.977 6.40536 113.905 6.39951C113.976 6.40111 114.037 6.40492 114.091 6.40768ZM109.308 6.48025C109.404 6.42665 108.916 6.42184 108.772 6.45214C108.729 6.51624 109.295 6.48771 109.308 6.48025ZM78.8365 7.37453C78.9961 7.33725 79.2901 7.35505 79.4896 7.3423C79.458 7.39194 78.9084 7.42004 78.8365 7.37453ZM67.5347 7.96405C67.8547 7.97115 68.2462 7.93213 68.2484 7.87295C68.2557 7.8817 68.2718 7.89044 68.2981 7.89855C68.3246 7.90653 68.6648 7.85679 68.8149 7.86725C69.7111 7.92662 65.3867 8.1665 67.8804 7.83225C67.7651 7.87615 67.6498 7.92008 67.5347 7.96405ZM52.7696 9.18811C52.5812 9.13504 52.0851 9.27625 52.2192 9.2909C52.3121 9.30068 52.9579 9.24155 52.7696 9.18811ZM59.7154 8.49769C59.6769 8.49195 59.4263 8.53526 59.2762 8.57519C59.2111 8.59238 59.1647 8.60891 59.1619 8.62055C59.1983 8.62244 59.2384 8.62251 59.2801 8.62109C59.567 8.61146 59.9344 8.53128 59.7154 8.49769ZM51.3758 9.24722C51.2608 9.24836 51.1277 9.37863 51.1416 9.38224C51.2621 9.41199 51.5721 9.29145 51.3758 9.24722ZM113.213 6.11067C113.042 6.0804 112.501 6.1733 112.384 6.2517C112.362 6.23731 112.302 6.21907 112.193 6.19783C112.193 6.19782 112.194 6.19782 112.194 6.19781C112.048 6.16862 107.659 6.21445 110.604 6.3082C110.697 6.31127 110.57 6.24496 110.945 6.25037C110.97 6.25081 110.983 6.30655 111.06 6.30792C111.237 6.31066 112.173 6.3296 112.362 6.28138C112.363 6.29172 112.376 6.30138 112.402 6.30999C112.634 6.38672 113.346 6.13397 113.213 6.11067ZM60.694 8.40549C60.5926 8.39301 60.2793 8.43883 60.2508 8.4908C60.4088 8.50179 60.9291 8.43464 60.694 8.40549ZM39.3595 10.6654C39.1519 10.6514 38.6527 10.7936 38.8119 10.8134C38.9088 10.8256 39.5981 10.6812 39.3595 10.6654ZM57.5445 8.70398C58.7085 8.65836 57.8205 8.67447 57.9916 8.58643C57.8424 8.62554 57.6933 8.66473 57.5445 8.70398ZM118.643 6.21179C118.456 6.19794 118.673 6.05173 118.88 6.1262C118.945 6.14986 118.748 6.21928 118.643 6.21179ZM127.089 6.04746C126.928 5.92293 127.709 5.98673 127.406 6.07781C127.392 6.08093 127.101 6.05213 127.089 6.04746ZM121.185 6.07822C121.06 6.16633 120.977 6.17774 120.62 6.16161C121.148 6.12963 120.656 6.06043 121.185 6.07822ZM68.2444 7.86392C68.2467 7.86726 68.2486 7.86972 68.2484 7.87295C68.2459 7.86993 68.2448 7.867 68.2444 7.86392ZM50.2848 9.38523C50.1318 9.32804 49.7266 9.37717 49.8554 9.43728C49.8677 9.44277 50.2309 9.44527 50.2848 9.38523ZM112.384 6.2517C112.404 6.26445 112.394 6.27309 112.362 6.28138C112.36 6.27164 112.368 6.26228 112.384 6.2517ZM52.4643 9.09745C52.455 9.15311 53.0782 9.11123 53.1028 9.10243C53.4506 8.97241 52.7196 9.06792 52.4643 9.09745ZM35.2658 11.1386C35.2349 11.1486 35.4583 11.2598 35.5763 11.1878C35.6677 11.132 35.3812 11.1007 35.2658 11.1386ZM122.4 6.02568C122.598 6.02295 122.878 6.01894 122.93 6.08508C122.797 6.07668 122.396 6.0748 122.4 6.02568ZM126.783 5.95985C126.549 6.04166 126.013 6.04879 125.671 6.04054C125.663 5.93716 126.563 5.98719 126.783 5.95985ZM113.752 6.14028C113.736 6.13632 113.238 6.11374 113.307 6.18187C113.408 6.28175 113.893 6.17562 113.752 6.14028ZM36.2272 11.0817C36.441 11.0043 35.914 10.9283 35.6987 11.0723C35.5877 11.1461 36.1906 11.0946 36.2272 11.0817ZM49.0045 9.4278C48.7173 9.49965 49.4484 9.49123 49.5398 9.4086C49.4069 9.41717 49.1059 9.40235 49.0045 9.4278ZM58.8822 8.38059C57.946 8.2528 58.4795 8.58867 58.6391 8.541C58.6615 8.53421 58.9051 8.38352 58.8822 8.38059ZM6.69732 15.7626C6.56957 15.8146 7.08359 15.8306 7.12606 15.7528C7.16076 15.7027 6.77581 15.73 6.69732 15.7626ZM72.7134 7.52976C72.6747 7.53266 72.6362 7.53557 72.5981 7.53836C72.6265 7.53331 72.664 7.53003 72.7134 7.52976ZM46.3377 9.44691C47.0148 9.66568 46.922 9.44784 46.9781 9.4426C47.0993 9.43194 47.392 9.47888 47.6177 9.44025C47.3609 9.50264 47.101 9.56562 46.8439 9.6285C47.0559 9.62472 48.8529 9.53253 48.8873 9.48145C48.9336 9.40778 48.3718 9.4914 48.355 9.48732C48.3305 9.48145 48.2216 9.30308 48.1686 9.30175C48.0837 9.29906 46.5818 9.46538 46.3377 9.44691ZM56.9697 8.58411C57.1195 8.593 57.1683 8.6639 57.2354 8.63979C57.2583 8.63155 57.2556 8.55994 57.3332 8.53432C57.2132 8.55076 57.0907 8.56747 56.9697 8.58411ZM45.2165 9.84489C45.0229 9.7796 45.8484 9.7159 45.8731 9.72306C46.0199 9.76554 45.375 9.89795 45.2165 9.84489ZM52.1485 9.06598C52.1179 9.06389 51.4891 9.10158 51.4994 9.14938C51.668 9.16877 52.5075 9.09328 52.1485 9.06598ZM57.4306 8.52059C57.6513 8.50895 58.0745 8.54355 58.0172 8.44051C58.0169 8.44054 58.0166 8.44057 58.0162 8.4406C57.8208 8.46715 57.6256 8.49381 57.4306 8.52059ZM36.9488 10.7539C36.5211 10.6387 36.7415 10.8276 37.1079 10.834C37.2065 10.7429 37.0189 10.7726 36.9488 10.7539ZM35.6251 10.8055C35.509 10.7899 34.3447 10.9862 34.535 11.0515C34.6036 11.0745 35.2661 10.8999 35.296 10.9022C35.344 10.9049 35.1444 11.0339 35.4983 10.9649C35.4728 10.9341 35.6652 10.8103 35.6251 10.8055ZM36.5978 10.6906C36.172 10.6168 36.1137 10.8678 36.4199 10.8267C36.5397 10.8108 36.6587 10.7014 36.5978 10.6906ZM38.2553 10.4889C38.1053 10.4857 37.7107 10.5046 37.454 10.6199C37.8122 10.5787 38.1758 10.5372 38.5344 10.4968C38.5695 10.4464 38.3873 10.4916 38.2543 10.489C38.2547 10.489 38.255 10.4889 38.2553 10.4889ZM129.243 5.30955C128.915 5.24574 129.667 5.20936 129.699 5.2257C129.794 5.28008 129.389 5.33805 129.243 5.30955ZM3.80969 14.0512C3.71323 14.0405 3.63599 13.9632 3.45315 14.0429C3.65384 14.0748 3.87692 14.1027 4.07785 14.1344C4.20369 13.9586 3.91345 14.0634 3.80969 14.0512ZM2.95913 13.6388C2.98723 13.6301 2.79212 13.428 3.1787 13.518C3.43715 13.5793 2.13893 13.9106 1.87599 13.8513C2.13172 13.7582 2.71757 13.7115 2.95913 13.6388ZM0.470119 13.047C0.446745 13.0324 0.9477 12.9196 1.00526 12.9227C1.32802 12.9372 0.560779 13.1333 0.470119 13.047ZM2.07887 12.8147C1.83052 12.8122 2.35371 12.6913 2.50971 12.6903C2.53666 12.7296 2.10907 12.8162 2.07887 12.8147ZM125.891 1.98278C125.629 1.82812 125.402 2.17194 125.8 2.09781C125.819 2.09432 125.902 1.99038 125.891 1.98278ZM0.916347 12.7329C1.15997 12.7369 0.644398 12.8552 0.485998 12.8552C0.467315 12.8146 0.884002 12.7319 0.916347 12.7329ZM125.703 1.60836C125.357 1.49925 125.484 1.87972 125.527 1.89452C125.705 1.95289 126.311 1.79454 126.435 1.75556C125.525 1.8254 125.866 1.65979 125.703 1.60836ZM124.116 1.85986C123.796 1.90509 124.615 1.97167 124.77 1.86298C124.611 1.87028 124.207 1.84681 124.116 1.85986ZM122.173 1.76464C122 1.7534 121.488 1.72795 121.403 1.78932C121.591 1.77573 122.101 1.82754 122.173 1.76464ZM121.78 1.59003C121.51 1.51218 121.449 1.75115 121.758 1.67581C121.77 1.6729 121.79 1.59444 121.78 1.59003ZM120.268 1.52593C120.09 1.43384 119.892 1.66733 120.178 1.66935C120.263 1.66953 120.287 1.53651 120.268 1.52593ZM125.266 1.2032C125.013 1.16603 124.69 1.33563 125.229 1.3463C125.041 1.37414 124.851 1.40199 124.662 1.42985C125.37 1.51259 125.314 1.28439 125.517 1.29105C125.801 1.3006 125.781 1.48984 125.725 1.54995C125.956 1.431 126.943 1.4156 127.514 1.38579C127.012 1.34404 126.196 1.27098 125.701 1.24701C125.56 1.24005 125.423 1.29375 125.303 1.28962C125.11 1.28271 125.28 1.20574 125.267 1.20319C125.267 1.20319 125.266 1.2032 125.266 1.2032ZM118.281 1.55199C117.761 1.45259 118.092 1.67914 118.384 1.63345C118.397 1.63008 118.294 1.55441 118.281 1.55199ZM0.14016 12.1503C0.809154 12.1364 0.349317 12.3457 1.73343 11.9079C1.15872 12.1479 1.71968 12.011 1.6126 12.0861C1.52203 12.1465 1.16678 12.1712 1.38983 12.2224C1.24091 12.1993 0.885538 12.2433 0.55623 12.2919C0.394023 12.3157 0.235066 12.3412 0.126679 12.3573C0.0253401 12.3756 -0.0672084 12.3724 0.174851 12.3576C0.171846 12.3577 0.168472 12.3577 0.164828 12.3578C0.210091 12.355 0.19319 12.3399 0.180417 12.3187C0.141055 12.2965 0.0176762 12.2786 0.00948413 12.2547C-0.0256936 12.2073 0.0413386 12.1509 0.14016 12.1503ZM122.162 1.15925C121.984 0.880786 121.923 1.32764 121.58 1.09968C121.131 1.44424 122.831 1.08185 123.041 1.36461C121.191 1.35755 124.266 1.63036 122.969 1.22106C124.035 1.36127 123.317 1.16322 123.48 1.10644C123.655 1.04594 124.258 1.10061 124.226 0.996404C124.225 0.996408 124.225 0.996413 124.225 0.996418C123.857 1.00887 123.489 1.02134 123.121 1.03383C123.484 1.2545 122.733 1.19737 122.474 1.01709C122.37 1.06447 122.266 1.11186 122.162 1.15925ZM124.247 1.34186C124.21 1.33718 123.411 1.38001 123.463 1.4246C123.57 1.45197 124.706 1.4015 124.247 1.34186ZM127.768 1.24412C127.481 1.24748 127.036 1.20951 126.88 1.29677C127.168 1.2934 127.613 1.33141 127.768 1.24412ZM112.97 1.44693C112.604 1.52292 113.734 1.52469 113.406 1.44744C113.39 1.44381 112.988 1.44336 112.97 1.44693ZM121.329 1.21364C120.955 1.13315 121.135 1.40388 121.41 1.32871C121.426 1.32428 121.346 1.21731 121.329 1.21364ZM0.669395 12.0276C0.678403 11.9586 1.67916 11.833 1.84958 11.8024C1.76379 11.8809 0.650241 12.1093 0.669395 12.0276ZM128.27 0.986765C127.695 0.753792 126.923 1.04245 126.838 1.03755C126.753 1.03251 126.885 0.92546 126.865 0.922901C126.821 0.917594 125.92 0.938777 125.877 0.946708C125.846 0.952848 126.011 1.09849 125.825 1.14764C126.187 1.05859 127.835 1.08866 127.92 1.07113C127.986 1.05714 127.485 0.908635 128.269 0.986779C128.269 0.986774 128.269 0.98677 128.27 0.986765ZM126.625 1.00823C126.851 1.06714 126.22 1.08354 126.067 1.06277C125.727 1.01623 126.596 1.00128 126.625 1.00823ZM125.107 0.971975C125.035 0.959057 124.383 0.955458 124.329 1.02524C124.638 1.11048 125.271 1.00211 125.107 0.971975ZM117.867 1.08552C117.698 1.09692 117.232 1.05101 117.207 1.11173C117.376 1.10032 117.841 1.14622 117.867 1.08552ZM3.9436 10.9215C3.65863 10.9204 4.30392 10.7859 4.48519 10.7785C4.50661 10.8156 3.96446 10.9222 3.9436 10.9215ZM121.257 0.637929C121.158 0.620921 119.116 0.696518 118.831 0.729161C119.111 0.770457 121.135 0.744385 121.226 0.720916C121.253 0.713866 121.27 0.640632 121.257 0.637929ZM125.671 0.548116C125.857 0.456738 125.98 0.561569 126.004 0.562583C126.236 0.572991 126.715 0.546396 126.611 0.633369C126.202 0.604444 125.301 0.729594 125.671 0.548116ZM117.716 0.685903C117.022 0.729433 118.357 0.802694 118.18 0.712557C118.169 0.707107 117.788 0.681344 117.716 0.685903ZM121.485 0.608775C121.637 0.534733 123.68 0.56773 124.007 0.563351C123.716 0.699801 123.478 0.602579 123.084 0.614874C122.977 0.618349 123.006 0.673011 122.995 0.673258C122.811 0.678405 122.948 0.612868 122.834 0.613505C122.763 0.614029 121.271 0.712932 121.485 0.608775ZM125.777 0.485127C125.89 0.432636 127.165 0.393476 127.217 0.406314C127.602 0.501678 125.876 0.501463 125.777 0.485127ZM121.296 0.493798C121.513 0.336802 122.529 0.425355 121.836 0.51194C121.77 0.519862 121.488 0.4572 121.296 0.493798ZM117.788 0.538302C117.753 0.53428 117.03 0.514614 117.018 0.563772C117.122 0.58114 118.177 0.582137 117.788 0.538302ZM118.16 0.367105C118.143 0.368544 118.313 0.460238 117.974 0.453422C117.946 0.45273 117.892 0.347458 117.466 0.392794C117.38 0.402112 117.247 0.474327 117.256 0.478539C117.703 0.638084 119.034 0.29926 118.16 0.367105ZM125.799 0.398873C125.73 0.355053 125.894 0.219908 126.044 0.285143C126.108 0.313318 125.99 0.394695 125.799 0.398873ZM115.495 0.530974C115.914 0.443681 114.593 0.44954 114.527 0.471325C114.57 0.520796 115.453 0.539483 115.495 0.530974ZM4.48102 10.1951C4.4807 10.1952 4.48037 10.1952 4.48004 10.1953C4.83493 10.1513 4.62895 10.2557 4.64538 10.2549C5.3983 10.2221 5.18082 10.1062 5.29436 10.068C5.53805 9.98565 5.51904 10.1765 5.93306 10.0257C5.25445 10.2603 5.87902 10.1019 5.91233 10.1627C6.03277 10.4137 4.96724 10.2021 4.63289 10.3181C4.58635 10.3342 4.95877 10.3554 4.84001 10.4011C4.44569 10.5507 3.13713 10.361 4.48102 10.1951ZM126.159 0.271842C126.322 0.190844 127.567 0.250214 127.238 0.319587C127.185 0.3307 125.92 0.389906 126.159 0.271842ZM67.9682 1.95012C68.2636 1.86242 67.5634 1.82814 67.4385 1.88976C67.3764 1.92036 67.8384 1.98856 67.9682 1.95012ZM63.0739 2.00374C62.7198 2.04446 62.3631 2.35704 62.8048 2.27889C62.8522 2.2704 63.1174 2.03995 63.0739 2.00374ZM86.4827 0.875349C86.1071 0.787687 86.1358 0.975464 86.4092 0.962608C86.5054 0.958127 86.4945 0.878128 86.4827 0.875349ZM72.2856 1.56282C72.2479 1.55835 71.8188 1.59537 71.8371 1.63778C71.9972 1.6544 72.5291 1.59407 72.2856 1.56282ZM86.5995 0.84415C86.3808 0.886279 86.7644 1.00862 87.0287 0.865539C86.8924 0.881442 86.622 0.839833 86.5995 0.84415ZM120.524 0.0879076C120.342 0.168044 119.82 0.152267 119.521 0.170006C119.487 0.0700972 120.311 0.109185 120.524 0.0879076ZM64.5956 2.00541C64.2625 2.10051 64.9912 2.10576 64.9182 2.01736C64.9085 2.01294 64.6086 2.00141 64.5956 2.00541ZM98.4711 0.468662C98.2279 0.534704 99.0071 0.595595 98.7906 0.495773C98.7799 0.49174 98.4845 0.464984 98.4711 0.468662ZM101.867 0.421641C101.68 0.405634 100.888 0.430294 101.198 0.481519C101.246 0.489346 101.854 0.476763 101.867 0.421641ZM5.30295 9.99311C5.19272 9.90786 5.75193 9.83407 5.84384 9.83613C5.87469 9.8383 5.45247 10.103 5.30295 9.99311ZM84.067 0.952309C83.8746 0.972874 83.374 0.968683 83.2884 1.02638C83.5233 1.00546 84.1346 1.05742 84.067 0.952309ZM66.1336 1.89581C65.8317 1.80434 65.331 1.85086 65.4653 1.98814C66.0186 1.93937 65.3873 1.86147 66.1336 1.89581ZM87.8335 0.678763C87.6788 0.675704 87.5656 0.820458 87.5832 0.826452C87.7526 0.883441 87.9889 0.727993 87.8335 0.678763ZM76.257 1.29086C76.2449 1.23126 75.7522 1.28395 75.8202 1.31919C75.8424 1.331 76.2666 1.33903 76.257 1.29086ZM114.062 0.153176C113.835 0.102043 114.524 0.0371201 114.73 0.0978584C114.83 0.18848 114.09 0.158983 114.062 0.153176ZM92.1122 0.571891C92.1323 0.481991 91.3613 0.556602 91.668 0.620927C91.7448 0.637 92.105 0.601928 92.1122 0.571891ZM99.5056 0.260667C98.9907 0.379429 101.166 0.402478 100.592 0.283782C100.551 0.27523 99.5515 0.250466 99.5056 0.260667ZM103.059 0.244472C102.969 0.234734 103.007 -0.0658441 103.379 0.0415869C103.428 0.0555067 103.203 0.139659 103.243 0.156905C103.267 0.166667 104.072 0.191337 104.109 0.1836C104.149 0.174808 104.1 0.0797958 104.14 0.0681629C104.186 0.0551279 104.682 0.129002 104.941 0.124548C105.429 0.115984 105.48 0.035042 105.52 0.0339451C105.637 0.0310247 105.834 0.0837607 106.071 0.078917C107.263 0.0540392 109.085 -0.0481677 110.032 0.104367C109.191 0.0515332 108.391 0.1387 107.554 0.177094C107.796 0.00545835 106.327 0.329673 107.185 0.120283C106.79 0.168884 103.353 0.27365 103.06 0.24445C103.059 0.244457 103.059 0.244464 103.059 0.244472ZM61.6587 2.02908C61.8691 1.90961 60.7492 2.02197 60.6626 2.14815C60.8132 2.15216 61.6319 2.04265 61.6587 2.02908ZM66.8296 1.39973C66.9334 1.37504 67.0188 1.16859 67.5724 1.2334C67.5729 1.23337 67.5734 1.23333 67.5739 1.2333C67.7358 1.25225 67.5568 1.31295 67.5872 1.32833C67.5984 1.33466 68.1039 1.40101 67.6906 1.44432C67.0607 1.51078 67.6212 1.29979 67.2844 1.32014C67.2438 1.32258 66.612 1.47385 66.6506 1.49511C66.6547 1.4976 66.8456 1.46166 66.8781 1.46937C67.0007 1.49827 66.9465 1.56454 66.9636 1.56635C67.0194 1.56997 68.0195 1.39679 68.1729 1.48016C68.2217 1.50641 66.5732 1.68566 66.5057 1.67535C66.4642 1.66836 66.4696 1.49424 66.4261 1.48014C66.4035 1.47307 65.7413 1.58413 65.654 1.57441C65.6286 1.57158 65.609 1.56797 65.5947 1.56488C65.6991 1.61123 65.0964 1.65003 65.1106 1.58843C65.1193 1.56392 65.5349 1.54823 65.5501 1.55137C65.5568 1.55267 65.5626 1.55469 65.568 1.55599C65.4768 1.49646 66.8847 1.40206 66.5743 1.32609C66.9794 1.24507 66.5259 1.47237 66.8296 1.39973ZM68.7823 1.16383C68.7412 1.18472 68.7002 1.20562 68.6592 1.22653C69.3728 1.13593 70.1969 1.17252 71.0219 1.1225C71.2309 1.10998 70.984 1.01302 71.2595 1.02713C71.4794 1.0385 71.7275 1.12755 71.61 1.15755C71.5813 1.16497 71.1327 1.12402 70.9087 1.14445C70.2498 1.20471 70.4227 1.29022 70.3842 1.29509C70.3418 1.30038 69.9229 1.25871 69.697 1.27583C69.1297 1.31908 68.8717 1.39407 68.0884 1.36824C68.5336 1.27611 68.2784 1.15542 68.7823 1.16383ZM95.3688 0.205399C95.3942 0.144468 95.861 0.184927 96.03 0.17149C96.005 0.232504 95.5376 0.191808 95.3688 0.205399ZM25.9565 6.02966C25.8339 6.14833 26.8913 6.01061 26.6011 5.97204C26.5354 5.9636 26.0921 6.00939 25.9565 6.02966ZM30.75 5.37147C30.8898 5.32349 30.3006 5.33754 30.3132 5.41301C30.3173 5.43714 30.7316 5.37769 30.75 5.37147ZM78.0116 0.745548C78.0386 0.741119 78.4346 0.744129 78.4472 0.748583C78.7137 0.840673 77.4115 0.842811 78.0116 0.745548ZM36.5564 4.43604C36.0669 4.56689 37.5709 4.394 37.1013 4.3735C37.0776 4.37255 36.5796 4.42969 36.5564 4.43604ZM38.6384 4.14257C38.5188 4.16154 37.9855 4.19897 37.9827 4.22979C37.9782 4.27934 38.5883 4.23299 38.6384 4.14257ZM87.9245 0.302241C87.8623 0.193058 88.5705 0.252471 88.8129 0.230196C88.8752 0.339421 88.1686 0.279456 87.9245 0.302241ZM83.4846 0.388898C86.4446 0.183726 85.8013 0.446186 83.3102 0.450271C83.3037 0.379097 83.2976 0.402053 83.4846 0.388898ZM87.2799 0.256399C87.1748 0.331513 86.8378 0.322612 86.6107 0.325296C86.6497 0.274237 87.1163 0.275089 87.2799 0.256399ZM24.6651 6.07577C24.8318 5.95835 25.6654 5.94111 25.5263 6.00037C25.4919 6.01365 24.6045 6.13525 24.6651 6.07577ZM78.2551 0.638491C78.1808 0.533603 79.0731 0.535442 79.1427 0.556403C79.4221 0.640025 78.3257 0.610971 78.2551 0.638491ZM92.1255 0.0677998C92.2799 -0.021805 92.7278 0.00808024 93.0153 0.00057745C92.8866 0.0769331 92.369 0.0617487 92.1255 0.0677998ZM90.0522 0.0677083C90.0701 0.0638411 90.471 0.0583305 90.4891 0.0616651C90.8201 0.133631 89.6861 0.149682 90.0522 0.0677083ZM3.85854 9.47826C3.87114 9.47327 4.17396 9.42541 4.18124 9.42736C4.46035 9.46082 3.56391 9.60186 3.85854 9.47826Z" fill="url(#paint0_linear_99_2360)"/>
<defs>
<linearGradient id="paint0_linear_99_2360" x1="0.189453" y1="8.68324" x2="129.694" y2="8.68324" gradientUnits="userSpaceOnUse">
<stop stop-color="#89A1F8"/>
<stop offset="1" stop-color="#E67FAB"/>
</linearGradient>
</defs>
</svg>
